<?xml version="1.0" encoding="utf-8"?>
<!-- Generator: Adobe Illustrator 23.1.0, SVG Export Plug-In . SVG Version: 6.00 Build 0)  -->
<svg version="1.1" id="Layer_1" xmlns="http://www.w3.org/2000/svg" xmlns:xlink="http://www.w3.org/1999/xlink" x="0px" y="0px"
	 viewBox="0 0 690 273" style="enable-background:new 0 0 690 273;" xml:space="preserve">
<g transform="matrix(1, 0, 0, 1, 1587.2461, 1047.8841)">
	<path d="M-1486-986.1l2.5,0.1l0,0l0.3,0l1.9,0.2l1.3,0.1h0.8l1.3,0.2l0.6,0.2l0.3,0.1l0.2,0l0.3,0.2l0.5,0.3l0.4,0.3l0.3,0.2
		l0.1,0.2l0.3,0.3l0.4,0.7l0.2,0.3l0,0.1l0.1,0.2l0.2,1.5v0.1l-0.4,1.8l-1,1.5l-1.5,1l-1.8,0.4l-1.1-0.2h-0.3l-0.2,0l-1.6-0.1l0,0
		l-0.2,0l-1.9-0.2l-2.3-0.1h-2.7l-2.8,0.1l-3,0.6l-3.6,1l-4.1,1.7l-4.4,2.2l-4.5,3l-4.7,3.5l-4.7,4.1l-4.4,4.6l-4.1,4.9l-3.6,5
		l-2.9,4.8l-2.2,4.5l-1.4,4l-0.8,3.5l-0.1,2.6l0.4,1.9l0.9,1.6l2,1.7l3.6,1.9l4.9,1.5l6.2,1.2l7.1,0.9l7.3,0.8l0,0l0,0l7.3,0.8l0,0
		l0.1,0l6.6,1l0.1,0l0.1,0l6,1.2l0.3,0.1l0.3,0.1l5.1,1.8l0.5,0.3l0.2,0.1l3.2,1.8l1.6-2.4l0.1-0.1l0.1-0.1l5.2-6.9l0,0l0,0l4.8-6.1
		l0,0l0-0.1l4.1-4.9l0.1-0.1l0.1-0.1l3.4-3.6l2.4-2.6l0.1-0.1l0.1-0.1l1.7-1.6l0.1-0.1l0.1-0.1l1.1-0.9l0,0l0,0l0.5-0.5l0.8-0.5
		l0.4-0.3l0.1,0l0.1,0l1.6-0.3l1.4,0.2l0.3,0.1l0.2,0l0.2,0.2l0.5,0.2l0.2,0.2l0.2,0.2l0.3,0.2l1,1.2l0,0l0,0l0,0l0.5,1.6l0.1,0.6
		l0,0.6v1.4l0,0.1l-0.1,2.6l0,0l0,0.1l-0.2,3.9v0l-0.3,5.3l0,0l0,0.1l-0.5,6l-0.4,6.2v0l0,0l-0.4,5.7l-0.1,4.7l0.2,3.8l0.4,2
		l1.8-0.3l4.4-2l5.9-3.6l6.8-4.6l7.1-5.3l6.9-5.5l6.4-5.3l0,0l5.4-4.5l2.3-2.9l0.2-0.1l0.1-0.2l4.2-4.3l0.1-0.1l0.1-0.1l4-3.6l0,0
		l0,0l3-2.7l0.1-0.1l0.1-0.1l1.6-1.3l0.1,0l0.1-0.1l0.7-0.4l0.4-0.2l0.1,0l0.1,0l0.2-0.1l1.5-0.2h0.1l1.8,0.4l1.5,1l1,1.5l0.3,1.6
		l0,0.2v0.1l-0.2,1.5l-0.1,0.3l0,0.1l0,0.1l-0.2,0.3l-0.4,0.8l-0.1,0.1l-0.1,0.1l-0.5,0.5l0,0l0,0.1l-0.8,0.9l0,0l0,0l-1.2,1.3
		l-0.1,0l0,0.1l-2,2l0,0l0,0l-2.8,2.7l-0.1,0l0,0.1l-3.8,3.5l0,0l0,0l-4.3,3.9l-0.9,1.1l-2.5,4.4l-1.5,4l-0.5,3.7l0.3,3.3l0.9,2.6
		l1.3,1.6l1.3,0.7l2,0.2l3.1-0.8l3.9-2.5l4.1-4l3.8-5l3.1-5.7l2.6-5.5l2-4.8l1.2-3.6l0.7-2.3l0.2-1.2v-1.2l0.4-1.8l1-1.5l1.5-1
		l1.8-0.4l0,0l1.6,0.3l0.1,0.1l0.1,0l0.4,0.3l0.8,0.4l0.2,0.2l0.2,0.1l0.2,0.4l0.4,0.5l0.1,0.3l0.2,0.3l0.1,0.4l0.2,0.5l0.1,0.7
		l0.1,0.7l0,0.1l0.1,2.3l0.2,4.2l0,0.2l0,0l0.1,6.7v0.1v9.2v0l0,0.4l5.9-8l0.1-0.1l0.1-0.2l5.5-6.3l0.1-0.1l0.1-0.1l4.8-4.8l0.2-0.1
		l0.1-0.2l3.8-3.1l0.2-0.1l0.1-0.1l2.8-2l0.7-0.4l0.5-0.3l0.1,0l0,0l0,0l1.9-0.7l1.5-0.3l0.8,0.1l1.8,0.3l0.8,0.3l0.4,0.1l0.1,0.1
		l0.2,0.1l1.2,1l0,0l0,0l1.4,1.7l0,0.1l0.1,0.1l0.5,0.9l0.2,0.3l0,0l0,0l1.3,3.7l0.1,0.4l0.1,0.4l0.9,5.4l0,0.3l0,0.1l0.7,6.9l0,0.5
		v8.2l0,0.3l0,0.3l0.7-1.5l0.1-0.2l0.1-0.2l4.1-6.7l0.1-0.1l0.1-0.3l3.8-4.9l0.2-0.2l0.2-0.3l3.3-3.2l0.7-0.5l0.3-0.3l3-1.7l0.1,0
		l0.2-0.1l1.7-0.4l2.8-0.2l0.3,0l1.8,0.4l0.3,0.2l0.2,0.1l2.7,1.6l0.4,0.4l0.9,0.8l2.4,3.1l0.5,0.9l0.1,0.2l1.8,4.3l0.1,0.4l0.2,0.5
		l1.1,5l0,0.4l0,0.1l0.5,5.4l0,0.2l0,0l0.2,5.2l0,0.2l0,0.1l-0.2,4.7v3.6l0.1,0.8l1.4-0.6l5.7-3.9l7.3-5.9l5.4-4.8l1.4-3.2l0.2-0.3
		l0.1-0.3l3.3-5.3l0.2-0.2l0.2-0.4l4.3-4.9l0.2-0.1l0.1-0.2l5.1-4.7l0.2-0.2l0.1-0.2l5.5-4.1l0.3-0.2l0.1-0.1l5.4-3.1l0.1,0l0.1-0.1
		l4.5-2.4l0.2-0.1l0.1-0.1l3.2-1.4l0.1,0l0.2-0.1l1.4-0.5l0.1-0.1l0.1-0.1l0.2-0.1l0.3-0.2l0.9-0.1l0.3-0.1l0.1-0.3l0.4-0.4l0.2-0.3
		l0.2-0.1l0.2-0.2l0.7-0.4l0.4-0.2l0.1,0l0.1-0.1l1.6-0.3l0,0h0.2l1.8,0.4l1.5,1l1,1.5l0.4,1.8v0.5l0,0l-0.1,0.9l-0.2,1l-0.3,2l0,0
		l0,0.1l-0.6,3.4l0,0.1l0,0.2l-1.1,4.2l-1,6.4l-1.1,8.2l-0.7,8l-0.2,7.4l0.3,6.3l0.8,4.5l1.1,2.4l0.7,0.6l0.8,0.1l2.7-1.3l4.7-4.3
		l5.3-7l5.1-9.2l4.4-10.7l3.4-11.4l2-8.9l0.1-8.7l0,0l0-0.1l0.3-11.6l0,0v0l0.4-10.4l0,0l0-0.1l0.5-8.4l0,0l0,0l0.5-5.9l0,0l0-0.1
		l0.3-3.1l0-0.1l0-0.4l0.2-1.1l0.2-0.5l0.1-0.3l0.2-0.3l0.2-0.4l0.4-0.5l0.2-0.3l0.2-0.1l0.2-0.2l0.8-0.4l0.4-0.2l0.1,0l0.1-0.1
		l1.6-0.3l0,0l1.5,0.3l0.1,0.1l0.1,0l0.3,0.2l0.7,0.4l0.2,0.2l0.2,0.1l0.2,0.3l0.4,0.4l0.2,0.4l0.2,0.3l0.1,0.3l0.2,0.4l0.1,0.3
		l0,0.2l0,0.1l0.1,0.8l0,0.1l0,0.1l0.2,1.6l0,0.5l0,0.1l0.1,2.4l0.2,3.6l0,0.2l0,0l0.1,4.9l0,0.1v6.3l0,0.2l-0.3,7.9l0,0l0,0.2
		l-0.8,9.3l0,0.1l0,0.2l-1.6,10.4l0,0.1l0,0.2l-0.3,1.4l0,2.2l0.2,11.3l0.3,10.4l0.5,8.8l0.8,7l1.3,4.8l1.3,2.9l0.6,0.7l0.9-0.4
		l3.1-2.9l4.3-5.3l4.5-7l4.2-7.6l3.4-7.3l2.6-6.6l1.8-5.2l1.1-3.8l0,0l0.8-2.7l0,0l0,0l0.3-0.9l0-0.3l0,0l0-0.1l0.1-0.6l0.2-0.6
		l0.1-0.5l0.1-0.2l0.1-0.2l0.5-0.6l0.3-0.4l0.1-0.1l0.1-0.1l0.8-0.5l0.4-0.3l0.1,0l0.1,0l1.6-0.3l0,0l1.8,0.4l1.5,1l1,1.5l0.4,1.8
		v0.2l0,0.5l-0.1,0.8l-0.1,0.3l-0.1,1.1l-0.1,3.9l0,0l0,0.1l-0.2,6.4l-0.2,7.8v8.3l0.2,7.9l0.7,7.1l1.2,5.6l1.6,4.1l1.4,2.2l0.6,0.4
		h0.4l2.3-1.3l3.8-3.8l4.1-6l4.1-7.8l3.8-8.6l3.4-8.3l0,0v0l2.9-7l0,0l2.1-5.2l0,0l1.4-3.4l0,0l0-0.1l0.8-1.9l0.3-0.7l0,0l0,0l1-1.5
		l0.5-0.3l0.2-0.2l0.5-0.3l0.3-0.2l0.2,0l0.2-0.1l1.4-0.2l1.8,0.4l1.5,1l1,1.5l0.4,1.8v7.8l0.2,6.9l0.4,8.2l0.8,8.7l1,8.4l1.5,7.1
		l1.7,5.3l1.7,3.1l1.3,1l1.3,0l2.8-1.5l4.1-4.1l4.4-6l3.9-6.9l3.1-6.9l2.3-5.9l1.4-4.8l0.8-3.4l0.4-2.3l0.2-0.9v-0.7l0.4-1.8l0,0
		l0,0l0.2-0.6l0-0.1l0-0.1l1.2-1.6l0.9-0.8l0.6-0.4l0.2-0.2l2.1-1.1l0.2-0.1l0.2-0.1l3-1.2l0.3-0.1l0.3-0.2l3.3-0.8l0.9-0.1l0.1,0
		l3.5-0.1l0.1,0l0,0l1.6,0.3l3,1.1l0.2,0.1l0.1,0l0.2,0.2l0.6,0.4l0.5,0.5l0.2,0.2l2.1,2.5l0.1,0.2l0.2,0.2l0.2,0.5l0.3,0.4l0,0.2
		l0.1,0.2l1.1,4.4l0.2,1.2v5.8l-0.1,0.7l-1,6.4l0,0.1l0,0.1l-1.2,6l0,0.1l0,0.1l-1.3,5.1l-0.6,3.6l0.1,1.8l0.1,0.2l0.8,0.4l3.5,0.2
		l6.5-1l8.3-2.5l9-3.7l1.6-0.8l-0.7-1.5l0-0.2l-0.4-1.4l-0.5-4.6l0-0.6l0.1-0.8l0.9-5l0.2-0.6l0.1-0.4l2.1-4.9l0.1-0.2l0.3-0.7
		l3.2-4.6l0.3-0.3l0.3-0.4l4.2-3.8l0.6-0.4l0.2-0.2l4.5-2.6l0.2-0.1l0.9-0.4l4.4-1.1l0.8-0.1l0.2,0l3.9-0.2l0.2,0l1.3,0.2l3.3,0.9
		l0.6,0.3l0.3,0.1l2.3,1.2l0.2,0.2l1.3,1l1.1,1.4l0.1,0.2l0.2,0.2l0.2,0.4l0.3,0.5l0.1,0.3l0.1,0.3l0.3,1.5l0.1,0.9l0,0l0,0.6
		l-0.2,1.8l-0.1,0.3l-0.1,0.5l-0.8,2.4l-0.3,0.5l-0.1,0.2l-1.7,3.2l-0.2,0.2l-0.2,0.4l-2.9,3.9l-0.2,0.2l-0.2,0.3l-4.2,4.4l-0.2,0.1
		l-0.1,0.2l-5.9,5l-0.3,0.2l-0.2,0.2l-3,1.9l1.1,0.3l9.6-0.3l12.7-3.2l14.2-6.1l14.5-8.9l12.4-9l1.3-0.7l1.5-0.2l1.8,0.4l1.5,1
		l1,1.5l0.4,1.8l-0.5,2.1l-1.4,1.6l-12.5,9.1l-0.2,0.1l-0.1,0.1l-14.9,9.1l-0.3,0.1l-0.3,0.2l-14.8,6.4l-0.3,0.1l-0.4,0.2L-981-875
		l-0.8,0.1l-0.2,0l-10.7,0.4l-0.2,0l0,0l-1.1-0.1l-7.3-1.8l-0.2-0.1l-0.2,0l-0.5-0.3l-0.5-0.2l-0.2-0.1l-0.2-0.1l-0.8-0.7l-3.6,1.9
		l-0.3,0.1l-0.2,0.1l-9.4,3.8l-0.2,0l-0.2,0.1l-8.8,2.7l-0.4,0.1l-0.3,0.1l-7.3,1.1l-0.7,0.1l-0.3,0l-5-0.3l-1.7-0.4l-0.1-0.1
		l-0.1,0l-2.9-1.6l-0.1-0.1l-0.1,0l-0.9-0.9l-0.7-0.7l0-0.1l-0.1-0.1l-1.3-2.3l0-0.1l-0.1-0.2l-0.4-1.7l-0.2-3.4l0-0.3l0.1-0.7
		l0.7-4.3l0-0.1l0-0.2l1.3-5.2l1.2-5.8l0.9-5.9v-4.8l-0.7-2.9l-0.7-0.8l-1-0.4l-2.1,0l-2.5,0.6l-2.5,1l-0.7,0.3l-0.2,1.1l0,0l0,0
		l-0.5,2.5l0,0.1l0,0.1l-0.9,3.6l0,0.1l0,0.1l-1.5,5.1l-0.1,0.2l0,0.2l-2.4,6.3l-0.1,0.1l0,0.1l-3.2,7.3l-0.1,0.2l-0.1,0.2l-4.2,7.3
		l-0.1,0.1l-0.2,0.3l-4.8,6.6l-0.2,0.2l-0.2,0.3l-4.8,4.8l-0.9,0.6l-0.3,0.2l-4.5,2.4l-0.2,0l-0.2,0.1l-1.8,0.4l-0.2,0l-3.9-0.2
		l-0.4-0.1l-0.9-0.2l-0.2-0.1l-0.2,0l-0.3-0.2l-0.5-0.3l-3.2-2.4l-0.9-1.1l-0.4-0.4l-2.5-4.4l-0.1-0.2l-0.3-0.6l-1.9-6l0-0.3
		l-0.1-0.2l-1.5-7.5l0-0.3l0-0.1l-1.1-8.6l0-0.2l0,0l-0.8-8.9l0-0.2l0,0l-0.1-1.4l-2.7,6.5l0,0l0,0.1l-3.9,8.8l-0.1,0.1l0,0.1
		l-4.3,8.2l-0.1,0.1l-0.2,0.3l-4.5,6.6l-0.3,0.2l-0.3,0.4l-4.5,4.5l-0.7,0.5l-0.3,0.3l-3.9,2.2l-0.2,0.1l-0.3,0.2l-1.8,0.4h-3.2
		l-1.5-0.2l-0.2-0.1l-0.1,0l-0.3-0.2l-0.6-0.3l-2.6-1.9l-0.6-0.8l-0.5-0.5l-2.1-3.4l-0.1-0.2l-0.4-0.7l-1.8-4.8l-0.1-0.4l-0.1-0.4
		l-1.3-6.2l0-0.4l0-0.1l-0.8-7.4l0-0.3l0,0l-0.2-8.1l0-0.1v-0.8l-1.1,2.2l-0.1,0.1l0,0.1l-4.3,7.9l-0.1,0.1l0,0.1l-4.7,7.3l-0.1,0.1
		l-0.2,0.3l-4.7,5.7l-0.2,0.2l-0.2,0.2l-3.9,3.7l-1.3,0.8l-0.1,0.1l-0.1,0l0,0h0l-3.1,1.3l0,0l0,0l-1.8,0.4l-1.2-0.2l-2.6-0.7
		l-0.4-0.2l-0.3-0.1l-0.3-0.2l-0.4-0.2l-0.5-0.5l-0.3-0.2l-2.2-2.3l-0.7-1.1l-0.1-0.2l-1.8-3.9l-0.1-0.3l-0.2-0.4l-1.5-5.5l-0.1-0.5
		l-0.1-0.2l-0.8-7.4l0-0.2l0,0l-0.3-5l-2.2,5.4l-0.2,0.2l-0.1,0.3l-5.4,9.7l-0.1,0.1l-0.2,0.4l-5.8,7.6l-0.3,0.2l-0.3,0.4l-5.5,5.1
		l-0.9,0.6l-0.2,0.2l-4.4,2.1l-0.1,0l-0.1,0.1l-1.8,0.4l-0.5,0l-3.6-0.4l-0.5-0.2l-0.6-0.1l-0.3-0.1l-0.3-0.1l-0.4-0.3l-0.5-0.3
		l-2.6-2.2l-1.2-1.5l0-0.1l0,0l-1.7-3.8l-0.1-0.4l-0.2-0.6l-1-5.4l-0.1-0.6l0-0.1l-0.3-6.8l0-0.2l0-0.1l0.1-1.7l-1.2,2.1l-0.1,0.1
		l-0.1,0.3l-4.9,6.6l-0.3,0.2l-0.2,0.4l-4.9,4.8l-0.5,0.3l-0.2,0.3l-4.5,2.8l0,0l-0.1,0l-1.5,0.6l-4,0.8l-0.9,0.1l-1.3-0.2l-3.3-1
		l-0.2-0.1l-0.2,0l-0.4-0.2l-0.6-0.3l-0.2-0.2l-0.2-0.1l-2.6-2.4l-1.1-1.5l0,0l0,0l0,0l0,0l-1.6-3.5l-0.1-0.4l-0.3-0.9l-0.5-4.1
		l-3.9,3.2l-0.2,0.1l-0.1,0.1l-6.2,4.3l-0.7,0.4l-0.1,0.1l-4.4,1.8l0,0l0,0l-1.8,0.4l-1-0.1l-2.5-0.5l-1.4-0.6l0,0v0l0,0l-1.1-1
		l-0.4-0.6l-0.2-0.2l-1.1-2.1l-0.1-0.3l-0.4-1.1l-0.5-3.1l-0.1-0.7v-4l0-0.1l0.1-4.6l-0.2-4.9l-0.5-5l-0.9-4.4l-1.4-3.3l-1.5-1.9
		l-0.7-0.4l-0.3,0l-1.5,0.9l-2.6,2.6l-3.4,4.5l-3.8,6.3l-3.9,8l-3.7,9l-3.2,8.8l-2.4,7.2l0,0l-1.5,4.5l0,0l-0.5,1.6l-0.3,0.6
		l-0.2,0.4l-0.1,0.1l-0.1,0.1l-0.5,0.5l-0.3,0.4l-0.1,0l-0.1,0.1l-0.8,0.4l-0.4,0.2l0,0l0,0l-1.5,0.2l-1.8-0.4l-1.5-1l-0.5-0.7
		l-0.5-0.7l-0.4-1.8l0.1-1.1l0.1-0.3l0.2-1l0-0.1l0-0.1l0.5-1.9l0,0l0.7-2.9l0.9-4.2l1.1-5.9l1.1-7.2l1-8.2l0.5-8.4v-7.9l-0.7-6.5
		l-0.8-4.8l-0.5-1.5l-1.4,1l-3.5,2.9l-4.5,4.5l-5.2,6.1l-5.8,7.8l-6,9.2l-1.6,3l-0.1,5l0,0l-0.2,12.4l-0.2,12.3l0,0l0,0.1l-0.5,11.8
		l0,0l0,0.1l-0.8,11.1l0,0l0,0.2l-1.2,10.2l0,0.1l0,0.2l-1.7,9l-0.1,0.2l0,0.3l-2.4,7.6l-0.2,0.3l0,0.2l-2.9,6.1l-0.1,0.1l-0.2,0.4
		l-3.1,4.6l-0.3,0.2l-0.3,0.4l-3,3l-0.8,0.5l-0.3,0.3l-2.9,1.6l-0.1,0l-0.1,0.1l-1.7,0.5l-2.5,0.2l-0.4,0l-1.8-0.4l-0.2-0.1l-0.2,0
		l-2.2-1.2l0,0l-0.1,0l-1.1-1.1l-0.5-0.5l0,0l0,0l-1.5-2.6l0-0.2l-0.5-1.2l-1-4.3l-0.1-0.8l0-0.1l-0.2-6.1l0-0.1l0,0l0-0.4l0.7-8
		l0-0.1l0-0.3l1.8-9.6l0-0.1l0-0.1l2.7-11l0-0.1l0-0.1l3.3-11.7l0-0.1l0-0.1l4.1-12l0.1-0.1l0-0.1l4.9-12l0.1-0.1l0-0.1l5.3-11.4
		l0.1-0.1l0-0.1l3-5.4l0.1-4.8l0.1-9.1l-2.3,4.2l-0.1,0.2l-0.2,0.4l-4.2,5.6l-0.2,0.2l-0.2,0.3l-4.7,4.5l-0.5,0.3l-0.2,0.3l-4.8,3.1
		l-0.1,0l-1.3,0.6l-4.5,1.2l-1.2,0.2l-0.4,0l-3.9-0.3l-1.7-0.5l-0.1-0.1l-0.1,0l-3-1.7l-0.4-0.4l-0.9-0.8l-2.3-2.9l0,0l0,0l-0.7-1.2
		l0,0l0,0l0,0l-1.4-3.8l-0.1-0.6l-0.1-0.5l-0.5-4.4l0-0.5l0-0.7l0-0.3l-5.1,4.1l-0.1,0.1l-0.1,0.1l-7.3,5.4l-0.1,0.1l-0.1,0.1
		l-7,4.7l-0.1,0.1l-0.1,0.1l-6.2,3.8l-0.3,0.1l-0.2,0.2l-5.2,2.3l-0.4,0.1l-0.7,0.2l-3.7,0.6l-0.8,0.1l-1.5-0.3l-2.4-0.9l-0.5-0.3
		l-0.2-0.1l-0.1-0.1l-0.4-0.2l-1-1l-0.1-0.2l-0.1-0.1l-1.3-2.1l0,0l0,0l-0.6-1.5l-0.6-3.2l-0.1-0.5l0-0.1l-0.2-4.2l0-0.3l0-0.1
		l0.1-5l0,0l0-0.2l0.4-5.9v0l0.4-6.2l0,0l0,0l0.5-6l0.1-2.3l-0.8,0.9l-4,4.7l-4.7,6l-5.1,6.8l-2.8,4.1l0.3,0.6l0,0.2l0.5,1.2
		l0.6,3.2l0.1,0.9l0,0l0,0.5l-0.4,3.6l-0.1,0.5l-0.1,0.6l-1.4,3.9l-0.2,0.4l0,0.2l-2.2,4l-0.1,0.1l-0.2,0.3l-2.7,3.8l-0.2,0.2
		l-0.2,0.3l-3,3.2l-0.2,0.1l-0.1,0.2l-2.9,2.5l-0.1,0.1l0,0.1l-2.4,1.9l-0.2,0.1l-0.1,0.1l-1.8,1.3l-0.3,0.2l-0.1,0.1l-1.2,0.7
		l-0.2,0l-1.2,0.5l-0.7,0.1l-0.9,0.1l-1.8-0.4l-1.5-1l-1-1.5l-0.4-1.8v-1.1l0.3-1.5l1-2.9l0.1-0.1l0-0.1l2.1-4.9l0.1-0.1l0-0.2
		l3.5-6.5l0.1-0.1l0-0.1l4.4-7.4l0,0l0,0l3.3-5.3l-2.2-1.3l-4.4-1.5l-5.5-1.1l-6.4-1l-7.1-0.8l-7.3-0.8l0,0l-0.1,0l-7.3-0.9l-0.1,0
		l-0.2,0l-6.6-1.3l-0.2-0.1l-0.2,0l-5.6-1.7l-0.5-0.2l-0.2-0.1l-4.5-2.3l-0.2-0.2l-0.6-0.4l-3-2.5l-0.7-0.8l-0.4-0.4l-1.7-2.9l0-0.1
		l-0.5-1.4l-0.6-3.2l-0.1-0.9l0,0l0-0.2l0.2-3.6l0-0.2l0.1-0.7l1-4.2l0.1-0.2l0-0.2l1.6-4.5l0.1-0.3l0-0.2l2.4-5l0.1-0.2l0.1-0.2
		l3.1-5.1l0.1-0.1l0.1-0.2l3.8-5.3l0.1-0.1l0.1-0.2l4.3-5.2l0.1-0.1l0.1-0.1l4.7-4.8l0.2-0.1l0.1-0.2l5-4.3l0.2-0.1l0.1-0.1l4.9-3.7
		l0.2-0.1l0.1-0.1l4.8-3.2l0.4-0.2l0.1-0.1l4.8-2.4l0.2,0l0.1-0.1l4.4-1.8l0.2,0l0.3-0.1l4-1.1l0.3,0l0.2-0.1l3.5-0.7l0.6-0.1l0.1,0
		l3.2-0.2l0.2,0h2.9L-1486-986.1z M-1373.5-860.7l-4,11.7l-3.3,11.4l-2.6,10.8l-1.7,9.2l-0.7,7.5l0.1,5.3l0.7,3.2l0.4,0.8l0.1,0
		l1.5-0.8l2.2-2.2l2.6-3.9l2.6-5.5l2.2-7l1.6-8.5l1.1-9.9l0.8-10.9l0.5-11.6l0.1-10.1L-1373.5-860.7z M-1230-919.8L-1230-919.8
		L-1230-919.8l-4.8,4.1l0,0l0,0l-6.2,5.4l0,0l0,0l-7.5,6.4l-8,7.1l0,0l0,0l-1,0.9l0,0.1l-1.2,4.4l-0.4,4l0.4,3.1l0.9,2l1.1,1
		l1.2,0.4l2-0.4l3.4-2.1l4.3-4.2l4.5-6.1l4.2-7.2l3.5-7.4l2.7-7l1.7-5.3L-1230-919.8z M-987.3-910.6l-3.3,0.9l-3.6,2l-3.4,3.2
		l-2.7,3.7l-1.7,3.9l-0.6,3.7l0.4,3.1l0.2,0.5l6.2-4l5.5-4.7l3.9-4l2.5-3.3l1.3-2.5l0.5-1.6l0-0.2l-0.6-0.3l-2.1-0.6L-987.3-910.6z"
		/>
	<g transform="matrix(1, 0, 0, 1, 314.75, 33.75)">
		<path d="M-1451.7-1004.1l1.5,1l1,1.5l0.4,1.8l-0.3,1.6l-0.8,1.4l-1.2,1l-1.5,0.6l-11.1,2.2l0,0l0,0l-13.4,2.7l0,0l0,0l-13.1,2.6
			l-0.1,0l0,0l-11.8,2.2l0,0l-9.4,1.9h0l-6,1.4l0,0l0,0l-3,0.7l0,0l0,0l-0.2,0.1l0,0l-0.2,0l-0.5,0.1l-0.2,0l-0.9,0.2l-1.8-0.4
			l-1.5-1l-1-1.5l-0.4-1.8v-0.1l0.3-1.6l0.1-0.1l0-0.1l0.2-0.4l0.4-0.7l0.2-0.2l0.1-0.2l0.3-0.2l0.5-0.4l0.4-0.2l0.3-0.2l0.3-0.1
			l0.4-0.2l1-0.2l0,0l0,0l3-0.7l0,0l0,0l6-1.4l0.1,0l0,0l9.4-1.9l0.1,0l0,0l11.8-2.2h0l13-2.6l0,0l0,0l13.4-2.7l0,0l0,0l11.1-2.2
			l0.9-0.1L-1451.7-1004.1z"/>
	</g>
	<g transform="matrix(1, 0, 0, 1, 40.5, 25)">
		<path d="M-1484.8-995.7l3.2,0.2l0.2,0.1l0.6,0.1l3.3,0.9l0.1,0l0.1,0l0.7,0.4l0.4,0.2l0,0l0.1,0l2.4,1.7l1.4,1.6l0,0l0,0l1.1,2.3
			l0,0.2l0.4,1.4l0.2,2.1l0,0.5l-0.4,1.8l-0.1,0.2l0,0.2l-1,1.9l-0.3,0.3l-0.9,1.1l-1.7,1.3l-0.1,0l-1.2,0.7l-0.1,0l0,0h0l-2,0.7
			l-0.9,0.2l-0.5,0.1l-2,0.1l-0.2,0l0,0l-1.7-0.3l-0.1,0l0,0l0,0l-1.5-0.6l-0.1-0.1l-0.2,0l-1.6-1.3l-0.8-1.1l-0.1-0.2l-0.2-0.2
			l-0.2-0.5l-0.3-0.5l0-0.3l-0.1-0.2l-0.3-1.3l-0.1-1.1l0,0l0-0.4l0.1-1l0.2-0.6l0.1-0.7l0.2-0.6l0-0.1l0-0.1l0.1-0.2l0.5-0.8
			l-0.7-0.5l-0.9-1.4l-0.3-1.7l0.4-1.8l1-1.5l1.5-1l1.8-0.4L-1484.8-995.7z"/>
	</g>
</g>
</svg>
