<?xml version="1.0" encoding="utf-8"?>
<!-- Generator: Adobe Illustrator 23.1.0, SVG Export Plug-In . SVG Version: 6.00 Build 0)  -->
<svg version="1.1" id="Layer_1" xmlns="http://www.w3.org/2000/svg" xmlns:xlink="http://www.w3.org/1999/xlink" x="0px" y="0px"
	 viewBox="0 0 690 273" style="enable-background:new 0 0 690 273;" xml:space="preserve">
<g transform="matrix(0.8944, 0, 0, 0.8944, 1556.2473, 788.946)">
	<path d="M-1613.5-828.1l2.5,0.4l0.1,0l0.2,0l2.2,0.5l0.5,0.2l0.3,0.1l1.7,0.8l0.1,0.1l0.1,0l1.6,0.9l0.2,0.2l0.2,0.1l1.6,1l0.1,0.1
		l0.2,0.1l1.2,0.9l0.2,0.3l0.3,0.2l0.6,0.7l0.2,0.2l0.1,0.2l0.2,0.1l0.6,0.9l0.3,0.4l0,0.1l0.1,0.1l0.4,1.8v0.2l-0.4,1.8l-1,1.5
		l-1.5,1l-1.8,0.4l-1.8-0.4l-1.5-1l-0.3-0.4l-0.1-0.1l-0.3-0.2l-0.6-0.7l-0.7-0.6l-1.2-0.8l-1.3-0.7l-1.2-0.5l-1.6-0.4l-1.9-0.3
		h-2.4l-2.8,0.4l-3.2,1l-3.7,1.5l-3.8,2l-3.9,2.4l-3.6,2.9l-3.1,3.1l-2.6,3.5l-2.2,3.7l-1.9,4.2l-1.6,4.3l-1.2,4.2l-0.8,3.8
		l-0.3,3.5l0.2,3.3l0.6,3.2l1.1,2.8l1.9,2.6l2.7,2.7l3.8,2.6l4.7,2.5l5.5,2.4l5.9,2.3l6.1,2.2l0,0l0,0l6,2.3l0.1,0.1l0.1,0l5.2,2.4
		l0.2,0.1l0.2,0.1l4.3,2.6l0.2,0.2l0.5,0.3l3,2.7l6.1-6.1l0.1,0l0-0.1l7.2-6.8l0.1,0l0,0l6.3-5.7l0.1,0l0-0.1l5.1-4.4l0.1,0l0,0
		l4-3.2l2.7-2.3l0.1-0.1l0.1-0.1l1.8-1.4l1-0.8l0,0l0,0l1.2-0.7l0.1,0l0,0h0l0.5-0.2l1.7-0.3l0,0l1.5,0.2l0.2,0.1l0.1,0l0.3,0.2
		l0.7,0.4l0.3,0.2l0.1,0.1l0.1,0.1l1,1.2l0.1,0.2l0.1,0.1l0.1,0.3l0.3,0.8l0.1,0.7l0.1,0.9v11.1l0.1,5l0.2,5.7v0l0,0l0.2,6l0.2,5.7
		l0.4,5.1l0.5,4.3l0.7,3.3l0.8,2.3l0.8,1.4l0.7,0.6l0.5,0.2l1.3,0l3.1-1l4.5-2.4l6-3.8l6.8-4.8l7.3-5.6h0l7.7-6l0,0l0,0l3.9-3
		l0.9-1.8l0.2-0.2l0.1-0.3l3.7-5.8l0.2-0.2l0.2-0.3l4.5-5.4l0.2-0.1l0.1-0.2l5.1-4.8l0.3-0.2l0.2-0.2l5.4-3.8l0.3-0.2l0.1-0.1
		l5.2-2.9l0.3-0.1l0.2-0.2l4.5-1.9l0.2,0l0.2-0.1l3-1l0.4-0.1l0.3-0.1l1.8-0.3l0.8-0.1h0.7l0.9,0.1l0.4,0.1l0.5,0.2l0.4,0.1l0.3,0.2
		l0.3,0.1l0.5,0.4l0.4,0.2l0.1,0.2l0.2,0.2l0.4,0.8l0.3,0.4l0,0.1l0.1,0.1l0.3,1.6l0,0l-0.1,0.9l-0.1,0.4l-0.1,0.4l-0.1,0.3
		l-0.2,0.3l-0.2,0.4l-0.3,0.3l-0.2,0.3l-0.5,0.6l-0.1,0.1l-0.1,0.1l-1.1,1.1l-0.1,0.1l-0.1,0.1l-1.7,1.6l1,0.2l0.2,0.1l0.2,0
		l0.3,0.2l0.6,0.3l0.3,0.3l0.2,0.2l0.2,0.2l0.3,0.3l0.3,0.6l0.2,0.3l0,0.2l0.1,0.2l0.1,0.4l0,0.2l0.1,0.2l0.4,1.6l0,0.2l0,0.1
		l0.5,3.2l0,0.1l0,0l0.7,5l0,0.2l0,0.1l0.4,5.6l4.7-5.4l0.2-0.1l0.1-0.2l5.5-5.2l0.3-0.2l0.2-0.2l4.8-3.5l0.4-0.2l0.1-0.1l4.1-2.1
		l0.3-0.1l0.6-0.3l3.3-1l1.4-0.2l0,0l0.1,0l2.7,0.1l0.3,0.1l1,0.2l0.3,0.1l0.2,0l0.3,0.2l0.5,0.3l2.2,1.5l0.7,0.8l0.5,0.5l1.8,2.9
		l0.1,0.2l0.4,0.8l1.5,4.4l0,0.3l0.1,0.2l1.2,5.8l0,0.3l0,0.1l0.8,6.6l0,0.1l0,0l0.8,7.2l0,0.1l0,0l0.6,7.1l0,0l0,0l0.2,2.6l1.1-2.9
		l0,0l0,0l2.9-7.3l0,0l0,0l2.9-6.6l0.1-0.1l0-0.2l2.9-5.4l0.1-0.1l0.1-0.2l2.6-3.9l0.2-0.2l0.2-0.4l2.4-2.6l0.9-0.7l0.3-0.3l2.1-1.1
		l0.2,0l0.2-0.1l1.8-0.4l0,0l0,0l0.5,0l2.2,0.2l0.4,0.1l0.6,0.1l0.4,0.2l0.3,0.1l0.3,0.2l0.4,0.2l2.2,1.6l0.5,0.6l0.5,0.4l1.9,2.8
		l0.3,0.6l0.1,0.1l1.7,3.8l0,0.2l0.2,0.3l1.4,4.5l0,0.1l0,0.1l1.2,4.7l0,0.1l0,0.1l1,4.6l1.3,4l1.7,3.5l1.8,2.5l1.7,1.1l2.6,0.3
		l4.5-1.4l6.1-3.7l5.8-4.4l1.3-0.7l1.5-0.3l1.8,0.4l1.5,1l1,1.5l0.4,1.8l-0.5,2.1l-1.3,1.6l-6,4.6l-0.3,0.2l-0.1,0.1l-6.8,4.1
		l-0.2,0.1l-0.8,0.4l-5.9,1.8l-1.4,0.2l0,0l-0.5,0l-4.7-0.5l-1.6-0.5l-0.3-0.2l-0.2-0.1l-3.4-2.2l-0.5-0.5l-0.7-0.6l-2.5-3.5
		l-0.3-0.5l-0.1-0.2l-2.1-4.1l-0.1-0.2l-0.2-0.4l-1.5-4.5l0-0.2l-0.1-0.2l-1.1-4.7l-1.2-4.5l-1.3-4.2l-1.4-3.2l-1.2-1.8l-0.3-0.2
		l-1.5,1.7l-2.2,3.4l-2.7,5l-2.8,6.4l-2.9,7.2l-2.7,7.2l0,0l0,0l-2.5,6.3l-1.7,4.6l-0.1,0.1l0,0.1l-1.1,2.4l-0.1,0.2l-0.8,1.2
		l-0.5,0.5l0,0l-1.5,1l-1.8,0.4l-1.6-0.3l-0.1-0.1l-0.1,0l-0.4-0.2l-0.8-0.4l-0.2-0.2l-0.2-0.1l-0.2-0.3l-0.4-0.5l-0.1-0.4l-0.2-0.3
		l-0.1-0.4l-0.2-0.5l-0.2-1l-0.1-0.7l0-0.1l-0.1-2l-0.2-3l0-0.1l0,0l-0.2-4.1l-0.4-5.3l0,0l0,0l-0.5-6.3v0v0l-0.6-7l-0.8-7.1
		l-0.8-6.4l-1.1-5.4l-1.2-3.6l-1.1-1.7l-0.3-0.2l-0.5,0l-2.2,0.7l-3.4,1.8l-4.3,3.2l-5.1,4.8l-5.5,6.4l-5.7,8l-0.1,0.1l-0.1,3.9l0,0
		l0,0.1l-0.4,10l0,0l0,0.2l-1,10.3l0,0.1l0,0.2l-1.5,10.4l0,0.1l0,0.1l-2,10.4l0,0.1l0,0.2l-2.6,10l0,0l0,0l-2.7,9.5l-0.1,0.1l0,0.1
		l-3,8.6l-0.1,0.1l0,0.1l-3,7.3l-0.1,0.1l0,0.1l-2.8,5.7l-0.1,0.1l0,0.2l-2.5,4.2l-0.1,0.1l-0.2,0.3l-2,2.6l-0.4,0.3l-0.3,0.4
		l-1.4,1.1l-0.8,0.5l-0.4,0.3l-0.1,0l-0.1,0.1l-1.6,0.3l0,0l-0.3,0l-1.1-0.1l-0.3-0.1l-0.7-0.1l-0.4-0.2l-0.3-0.1l-0.2-0.2l-0.4-0.2
		l-0.2-0.2l-0.6-0.4l-0.9-1.4l0,0l0,0l0,0l0,0l-0.7-1.6l-0.1-0.7l-0.2-0.8l-0.2-3.8l0-0.3l0-0.4l0.5-6.1l0-0.1l0-0.2l1.3-8.3l0,0
		l0-0.1l1.9-10l0,0l0-0.1l2.5-10.9l0,0l0-0.1l3-11.7l0-0.1l0-0.1l3.8-12l0-0.1l0-0.1l4.3-11.7l0.1-0.1l0-0.1l4.9-10.9l0.1-0.2
		l0.1-0.2l4.2-7.4l0-2.8l-0.2-6.5l-0.3,0.7l0,0l0,0.1l-3,6.2l-0.1,0.1l-0.1,0.2l-3.8,6.3l-0.1,0.1l-0.2,0.3l-4.3,5.6l-0.2,0.2
		l-0.2,0.3l-4.4,4.3l-0.5,0.3l-0.2,0.3l-4.3,2.8l-0.1,0l-1.2,0.5l-3.8,1.1l-1.3,0.2l0,0l-0.7,0l-3.3-0.5l-1.6-0.5l-0.2-0.1l-0.1,0
		l-2.5-1.6l-0.7-0.8l-0.6-0.6l-1.8-2.8l0,0l-0.6-1.4l-0.9-3.7l-0.1-0.7l0-0.2l-0.2-4.5l0-0.2l0,0l0,0l0-0.6l0.1-0.9l-1.3,1l0,0l0,0
		l-7.4,5.6l-0.1,0.1l0,0.1l-7,4.9l-0.1,0.1l-0.1,0.1l-6.2,4l-0.2,0.1l-0.2,0.1l-5.1,2.7l-0.3,0.1l-0.5,0.3l-4,1.3l-1.1,0.2l-0.3,0.1
		l-2.9,0.1l-0.1,0l0,0l-1.7-0.3l-0.1,0l0,0l0,0l-2-0.8l-0.1-0.1l-1.2-0.7l-1.9-1.6l-0.6-0.8l-0.3-0.3l-1.4-2.4l-0.1-0.2l-0.3-0.6
		l-1.1-3l-0.1-0.3l-0.1-0.3l-0.8-3.7l0-0.3l0-0.1l-0.5-4.5l0-0.1l0,0l-0.5-5.2l0-0.2l0,0l-0.2-5.8l0-0.1l0,0l-0.2-6v0l-0.2-5.8
		l0-0.1l0,0l-0.1-5.1l0-0.1v-3.2l-3.2,2.6l-5.1,4.3l-6.2,5.6l-7.1,6.8l-7.7,7.7l-0.4,0.4l0.2,0.7l0.2,1.4v4.2l-0.2,1.2l-1.2,4.7
		l-0.2,0.5l-0.1,0.3l-2.4,5.1l-0.2,0.3l-0.1,0.3l-3.3,5l-0.2,0.1l-0.2,0.3l-3.9,4.5l-0.2,0.2l-0.2,0.2l-4.2,3.8l-0.2,0.1l-0.1,0.1
		l-4.1,3.1l-0.3,0.2l-0.1,0.1l-3.5,2.1l-0.1,0l-0.1,0.1l-2.7,1.4l-0.2,0.1l-0.4,0.2l-1.9,0.7l-0.4,0.1l-0.4,0.1l-1.2,0.2l-0.9,0.1
		l-1.5-0.3l-0.1-0.1l-0.1,0l-0.3-0.2l-0.7-0.4l-0.2-0.2l-0.2-0.1l-0.2-0.3l-0.4-0.4l-0.2-0.4l-0.2-0.3l-0.1-0.3l-0.2-0.4l-0.2-0.9
		l-0.1-1.2l0.4-1.8l0,0l0,0l1.2-2.9l0.1-0.2l0.1-0.2l2.8-5l0.1-0.1l0.1-0.3l4.8-6.9l0.1-0.1l0.1-0.1l6.1-7.9l0.1-0.1l0.1-0.1
		l7.3-8.6l0.1-0.1l0.1-0.1l3.2-3.5l-0.1-0.1l-2.4-2.3l-3.7-2.2l-4.8-2.2l-5.8-2.2l-6.1-2.2l-0.1,0l0,0l-6-2.4l-0.1,0l-0.1,0
		l-5.7-2.6l-0.1-0.1l-0.2,0l-5.1-2.7l-0.1-0.1l-0.3-0.1l-4.3-2.9l-0.2-0.2l-0.4-0.3l-3.3-3.2l-0.3-0.4l-0.3-0.2l-2.5-3.4l-0.4-0.8
		l-0.1-0.1l-1.5-3.7l-0.1-0.4l-0.2-0.5l-0.7-3.9l0-0.5l0-0.1l-0.2-3.9l0-0.3l0-0.3l0.3-4.1l0-0.1l0-0.4l0.9-4.3l0.1-0.2l0-0.2
		l1.3-4.6l0.1-0.1l0-0.1l1.7-4.6l0.1-0.2l0-0.1l2.1-4.6l0.2-0.2l0.1-0.2l2.5-4.2l0.1-0.1l0.2-0.3l3-3.9l0.2-0.2l0.2-0.3l3.5-3.5
		l0.2-0.2l0.1-0.2l4-3.2l0.3-0.2l0.1-0.1l4.3-2.7l0.2-0.1l0.2-0.1l4.1-2.1l0.2-0.1l0.1-0.1l4-1.7l0.2,0l0.2-0.1l3.7-1.1l0.4-0.1
		l0.3-0.1l3.4-0.5l0.7-0.1h3.2L-1613.5-828.1z M-1478.5-695.6l-3.7,11.7l-3,11.4l-2.4,10.7l-1.9,9.8l-0.8,5.2l0.8-1.7l2.9-7.1
		l2.9-8.3l2.7-9.3l2.6-9.7l2-10.1l1.5-10.2l0.3-2.6L-1478.5-695.6z M-1609.4-715.9l-5.9,7.7l-0.6,0.9l2.8-2.5l3.5-4.1l3-4.5l0.7-1.5
		L-1609.4-715.9z M-1477.6-756.6L-1477.6-756.6l-0.1,0.1l-4.6,3.5l-0.1,0l0,0l-5.5,4.1l0,0l-6.2,4.6l-6.8,5.3l0,0l0,0l-1.8,1.4
		l-0.9,1.9l-1.6,4.9l-0.5,4.2l0.2,3.7l0.6,2.6l0.8,1.3l0.8,0.5l1.2,0.2l2.2-0.6l3.3-2.1l3.8-3.7l4-5.2l3.5-5.8l2.9-5.9l2.4-5.3
		l1.7-4.3l1.1-3.2l0.7-2.2l0.2-0.8L-1477.6-756.6z"/>
	<g transform="matrix(1, 0, 0, 1, 334.25, 70.75)">
		<path d="M-1592.4-883.7l1.5,1l1,1.5l0.2,1.1l0.1,0.2l0.1,0.8l0.1,0.9v1.6l0,0.3l-0.2,2.6v0l-0.2,3.8l0,0l0,0l-0.4,5.3l0,0l0,0.2
			l-0.8,6.6l0,0l0,0.1l-1.2,8.1l0,0.1l0,0.1l-1.8,9.5l0,0.1l0,0.2l-2.7,10.7l0,0.1l0,0.1l-0.5,1.7l-0.9,6.2l-0.8,9.1l-0.3,7.8
			l0.3,6.6l0.8,5.3l1.1,4l1,2.4l0.1,0.1l1.7-1.1l3-3.2l3.5-5.3l3.8-7.2l3.7-7.9l3.4-7.7l2.8-6.7l2.1-5.3l0,0l1.6-4l0,0l0,0l1.1-2.6
			l0,0l0,0l0.7-1.6l0,0l0.3-0.7l0,0l0,0l0,0l0-0.1l0.1-0.2l0.2-0.3l0.6-0.9l0.6-0.4l0.2-0.3l0.3-0.1l0.4-0.3l1.8-0.4l0,0l1.8,0.4
			l1.5,1l1,1.5l0.4,1.8v0.2l0,0.2l-0.1,1.5l0,0l0,0.1l-0.3,3.6v0l-0.5,5.5l-0.5,7.2l-0.5,7.8l-0.2,7.6v6.8l0.4,5.6l0.7,4.1l0.3,0.8
			l1.3-0.8l4-4.2l4.6-6.2l4.6-7.4l4.5-7.9l3.8-7.3l3.1-6.4l2.3-4.9l1.6-3.6l0,0l1-2.3l0.5-1.4l0.2-0.6l0,0l0.1-0.2l0.1-0.2l0-0.1
			l0.2-0.3l0.3-0.7l0.3-0.3l0.2-0.2l0.2-0.2l0.3-0.3l0.6-0.3l0.3-0.2l0.2,0l0.2-0.1l1.5-0.2l1.8,0.4l1.5,1l1,1.5l0.4,1.8v0.2l0,0.2
			l-0.1,2.3l0,0l0,0.1l-0.2,4.7l-0.1,6.7v8.3l0.1,8.6l0.2,8.2l0.5,7.1l0.6,5.4l0.6,2.6l1.4-1.5l3.6-5.6l3.7-7.5l3.4-8.4l2.7-8l2-7
			l1.2-5.4l0.6-3.8l0.2-2.5v-1.2l0-0.5l-0.2-1v-0.2l0.4-1.8l0.7-1.1l0.1-0.1l0.1-0.1l0.1-0.2l0,0l0.2-0.2l0.3-0.2l0.3-0.3l0.5-0.3
			l0.3-0.2l0.2,0l0.3-0.1l0.7-0.2l0.2,0l0.1-0.1l1.7-0.4l0.3,0l0.1,0l3.1-0.5l0.2,0l0.1,0l4.1-0.4l0.3,0l0,0l4.6-0.2l0.2,0l0.5,0
			l4.6,0.5l0.2,0.1l0.4,0l4,0.9l0.9,0.4l0.3,0.1l3.3,1.8l0.3,0.3l0.9,0.7l2.3,2.7l0.1,0.1l0.1,0.1l0.5,1l0.1,0.2l0,0l0,0l1.4,3.7
			l0.1,0.5l0.2,0.5l0.6,4.4l0,0.4l0,0.1l0.2,5.1l0,0.2v5.4l0.1,5.2l0.4,4.9l0.6,4.3l0.9,3.3l1.4,2.6l1.4,1.8l1.1,0.8l0.9,0.3l1-0.1
			l1.5-0.7l0,0l-0.5-1l-1.9-6l-0.1-0.7l-0.1-0.4l-0.6-6.9l0-0.4l0-0.2l0.3-7.2l0-0.1l0-0.5l1.2-7l0.1-0.3l0.1-0.4l2.2-6.3l0.3-0.5
			l0.1-0.2l2.9-5.1l0.2-0.2l0.3-0.6l3.2-3.5l0.9-0.7l0.3-0.3l3.4-1.9l0.1,0l1.4-0.5l3.5-0.6l0.8-0.1l0.4,0l3.4,0.3l0.4,0.1l0.6,0.1
			l2.8,0.9l0.4,0.2l0.7,0.3l1.9,1.3l0.3,0.3l0.5,0.3l1.1,1.2l0.1,0.2l0.2,0.2l0.4,0.8l0.2,0.3l0,0.1l0.1,0.1l0.5,1.3l0.1,0.8
			l0.1,0.5l0.1,1.4l0,0.3l0,0l0,0.6l-0.2,1.8l-0.1,0.2l0,0.3l-0.5,2.3l0,0.1l0,0.1l-0.9,3l-0.1,0.2l0,0.2l-1.4,3.6l0,0.1l0,0.1
			l-1.9,4.5l0,0.1l0,0.1l-2.5,5.2l0,0.1l0,0.1l-3,5.7l-0.1,0.1l0,0.1l-3.5,5.8l-0.1,0.1l-0.1,0.1l-3.8,5.6l-0.2,0.2l-0.2,0.3
			l-1.1,1.2l1.9,1.5l5.3,1.7h7.8l10.2-2.1l11-4.3l10.7-6.1l9.9-7.8l7.9-7.3l1.4-0.9l1.7-0.3l1.8,0.4l1.5,1l1,1.5l0.4,1.8l-0.4,1.9
			l-1.1,1.5l-8.1,7.5l-0.2,0.1l-0.1,0.1l-10.3,8.1l-0.4,0.2l-0.2,0.2l-11.3,6.5l-0.4,0.1l-0.3,0.2l-11.7,4.5l-0.4,0.1l-0.4,0.2
			l-11,2.3l-1,0.1h-9l-1.4-0.2l-6.8-2.2l0,0l0,0l-0.5-0.3l-0.7-0.3l0,0l0,0l-3.8-2.8l-0.5,0.3l-0.2,0.2l-3.1,1.5l-0.1,0l-0.1,0
			l-1.7,0.4l-2.8,0.2l-0.3,0l-1.5-0.3l-2.5-0.9l0,0h0l-0.1-0.1l-1.1-0.6l0,0l0,0l-2.2-1.7l-0.4-0.5l-0.4-0.4l-2-2.6l-0.3-0.5
			l-0.2-0.2l-1.8-3.4l-0.1-0.3l-0.3-0.6l-1.1-4l-0.1-0.4l-0.1-0.3l-0.6-4.7l0-0.2l0,0l-0.4-5.1l0-0.3l0,0l-0.1-5.4l0-0.1v-5.4
			l-0.2-4.8l-0.5-3.8l-0.9-2.5l-1.2-1.4l-1.9-1.1l-3-0.7l-3.9-0.4l-4.2,0.1l-3.8,0.4l-1.6,0.2l-0.2,2.8l0,0.1l0,0.3l-0.7,4.2l0,0.1
			l0,0.2l-1.3,5.6l0,0.1l0,0.1l-2.1,7.3l0,0.1l0,0.1l-2.8,8.3l-0.1,0.1l0,0.1l-3.5,8.6l-0.1,0.1l0,0.2l-3.9,8l-0.2,0.2l-0.1,0.2
			l-4,6.3l-0.2,0.2l-0.3,0.5l-3.5,3.7l-1.5,1l-0.1,0l-0.1,0l-2.7,1.1l-1.7,0.3l0,0l0,0l-1.8-0.4l-0.3-0.2l-0.2-0.1l-1.9-1.1
			l-0.1-0.1l-0.1,0l-0.4-0.5l-1-1l-0.1-0.3l-0.2-0.2l-1.1-2.7l-0.1-0.4l-0.2-0.5l-0.9-4.2l0-0.4l0-0.1l-0.6-5.8l0-0.1l0,0l-0.5-7.3
			l0-0.2l0,0l-0.2-8.4l0-0.1l0,0l-0.1-8.7v0v0l-3.8,7.2l0,0.1l0,0.1l-4.6,8l-0.1,0.1l0,0.1l-4.7,7.6l-0.1,0.1l-0.1,0.2l-4.9,6.6
			l-0.2,0.2l-0.2,0.3l-4.5,4.8l-0.5,0.4l-0.3,0.3l-3.8,2.5l-0.2,0.1l-0.4,0.3l-1.8,0.4l-2.5,0.1l-0.1,0l0,0l0,0l-1.8-0.4l0,0l0,0
			l-0.5-0.3l-1-0.6l0,0l0,0l-1.6-1.7l-0.1-0.2l-0.2-0.2l-0.3-0.7l-0.2-0.3l0-0.1l-0.1-0.2l-1.1-3.2l-0.1-0.4l-0.1-0.3l-0.8-4.6
			l0-0.3l0-0.1l-0.5-6l0-0.4v-7l0-0.1l0.2-6.1l-1.4,3.2l0,0l0,0l-3.8,8l-0.1,0.1l0,0.1l-4,7.5l-0.1,0.1l-0.1,0.3l-3.9,5.8l-0.2,0.2
			l-0.2,0.4l-3.7,3.9l-0.6,0.4l-0.3,0.3l-3.1,2l-0.1,0l-0.1,0.1l-1.5,0.6l-2.4,0.5l-0.9,0.1l0,0l-1.8-0.4l0,0l0,0l0,0l-1.9-0.8
			l-0.1-0.1l-0.2,0l-1.6-1.3l-1.5-1.9l-0.4-0.8l-0.1-0.2l-1.4-3.2l-0.1-0.3l-0.2-0.4l-1.2-4.5l0-0.4l-0.1-0.2l-0.8-5.7l0-0.4l0-0.1
			l-0.1-2l-2.1,4.2l-0.1,0.1l0,0.2l-5.7,9.4l-0.2,0.2l-0.2,0.3l-6.1,7.5l-0.3,0.2l-0.2,0.3l-5.9,5.2l-0.8,0.5l-0.2,0.2l-5.5,2.7
			l-0.2,0.1l-1.3,0.4l-4.4,0.5l-0.5,0l0,0l0,0l-1.8-0.4l-0.2-0.1l-0.2,0l-3.1-1.6l-0.2-0.2l-1.3-1.1l-2.4-3.2l-0.5-0.9l-0.1-0.1
			l-1.8-4.7l-0.1-0.4l-0.2-0.4l-1.2-6l0-0.3l0-0.1l-0.5-4.3l-0.6,1.2l-0.1,0.1l-0.2,0.4l-3.9,5.8l-0.2,0.2l-0.2,0.3l-4.3,4.8
			l-0.4,0.3l-0.2,0.3l-4.1,3.2l-0.8,0.5l-0.2,0.1l-3.7,1.6l0,0l0,0l-1.8,0.4l-0.2,0l-2.9-0.2l-0.3-0.1l-0.8-0.1l-0.3-0.2l-0.2-0.1
			l-0.2-0.2l-0.4-0.2l-2.2-1.5l-0.8-0.9l-0.5-0.5l-1.6-2.7l0,0l-0.6-1.5l-0.8-3.7l-0.1-1l0,0l0-0.4l0.4-4.8l0.1-0.3l0.1-0.6l1.6-5.3
			l0.2-0.4l0.1-0.2l2.9-6l0.2-0.2l0.1-0.2l3.8-6.1l0.1-0.1l0.2-0.3l4.7-5.9l0.2-0.1l0.1-0.2l5.5-5.6l0.2-0.2l0.1-0.2l5.8-4.8
			l0.2-0.1l0.1-0.1l5.7-4.1l0.3-0.1l0.1-0.1l0.7-0.4l0.1-1.1l0,0l0-0.1l0.2-1l0.2-0.6l0.1-0.5l0.1-0.2l0.1-0.3l0.5-0.6l0.3-0.4
			l0.1-0.1l0.1-0.1l0.8-0.5l0.4-0.3l0.1,0l0.1,0l1.6-0.3l1.8,0.4l1.5,1l0.2,0.3l1-0.5l0.2,0l0.1-0.1l2.9-1.2l0.1,0l0.2-0.1l1.3-0.5
			l1.6-0.3l0,0l1.8,0.4l1.5,1l1,1.5l0.4,1.8l0,0l-0.2,1.4l-0.1,0.2l0,0.2l-0.2,0.3l-0.3,0.6l-0.3,0.3l-0.2,0.2l-0.2,0.2l-0.2,0.1
			l0,0l-0.1,0.2l-0.4,0.3l-0.7,0.6l-0.3,0.2l-0.1,0.2l-1.1,0.8l-0.1,0l0,0l-1.3,0.9l-1.4,1l-0.2,0.1l-0.1,0.1l-1.6,1l-0.1,0
			l-0.1,0.1l-1.3,0.7l-0.5,0.3l-0.4,2.7l0,0l0,0.1l-0.2,1.4l-0.1,2l-0.2,7.5l-0.1,7.9l0.4,7.6l0.7,6.8l1.1,5.5l1.5,3.8l1.4,1.9
			l0.9,0.5l2.3-0.2l4.3-2.1l5.2-4.5l5.6-6.9l5.4-9l5.2-10.4l4.3-11.1l2.7-8.8l0.4-3l0,0l1.5-10.4l0,0l0,0l1.6-10.3l0,0l0,0l1.5-9.3
			l1.1-7.7l0.8-5.5l0.4-3.2l0-0.1l0-0.2l0.2-1.3l0.2-0.5l0.1-0.4l0.2-0.2l0.1-0.3l0.4-0.5l0.3-0.4l0.2-0.1l0.1-0.2l0.8-0.5l0.4-0.3
			l0.1,0l0.1-0.1l1.6-0.3l0,0L-1592.4-883.7z M-1656.6-819.1l-5.5,4.6l-5.1,5.3l-4.4,5.5l-3.5,5.6l-2.6,5.4l-1.4,4.5l-0.3,3.6
			l0.5,2.4l0.7,1.1l0.2,0.2l0.5,0l2.2-0.9l3.4-2.6l3.8-4.2l3.6-5.2l2.9-6l2.2-6.2l1.7-5.9l1.1-5.5l0.3-1.8L-1656.6-819.1z
			 M-1434.4-832.5l-2.1,1.2l-2.3,2.6l-2.4,4.3l-1.9,5.5l-1,6.3l-0.3,6.6l0.5,6.1l0.6,2l2.8-4.1l3.3-5.6l2.9-5.5l2.4-5l1.8-4.3
			l1.3-3.3l0.8-2.6l0.5-1.9l0.1-1.1l0-0.1l-1-0.7l-1.7-0.6l-2.2-0.2L-1434.4-832.5z"/>
	</g>
	<g transform="matrix(1, 0, 0, 1, 331.25, 43.875)">
		<path d="M-1563.2-847.9l1.5,1l1,1.5l0.4,1.8l-0.3,1.6l-0.8,1.3l-1.2,1l-1.5,0.6l-15.1,3.1l0,0l-17.1,3.7l0,0l-15.5,3.6h0
			l-13.3,3.4l0,0l0,0l-10.5,2.8l0,0l-6.9,1.9l0,0l0,0l-3.7,1l0,0l0,0l-1.1,0.3l-1.2,0.2l-1.8-0.4l-1.5-1l-1-1.5l-0.4-1.8l0.3-1.5
			l0.7-1.3l1.1-1l1.4-0.6l1.1-0.3l0,0l0,0l3.7-1l0,0l0,0l7-1.9l0.1,0l0,0l10.5-2.8l0,0l0,0l13.4-3.5l0.1,0l0.1,0l15.6-3.6l0.1,0l0,0
			l17.1-3.7l0.1,0l0,0l15.1-3.1l1-0.1L-1563.2-847.9z"/>
	</g>
	<g transform="matrix(1, 0, 0, 1, 49.875, 29.5)">
		<path d="M-1603.9-839.9l5.2,1.3l0.1,0.1l0.2,0l0.6,0.3l0.5,0.2l0.1,0.1l0.1,0.1l3.2,2.3l0.1,0.1l0.8,0.7l0.3,0.5l0.2,0.2l0,0.2
			l0.2,0.3l1.1,2.8l0.3,1.7l0,0l-0.1,0.9l-0.5,2.9l-0.6,1.5l0,0v0l-1.6,2.7l-0.3,0.3l-0.4,0.6l-2.2,2.2l-0.6,0.4l-0.3,0.3l-2.4,1.5
			l-0.1,0l-0.1,0.1l-1.6,0.5l-2.3,0.3l-0.6,0l-1.2-0.2l-1.7-0.5l-0.7-0.3l-0.3-0.1l-1.4-0.8l-0.1-0.1l-0.1,0l-1.1-0.7l-0.2-0.2
			l-0.3-0.2l-0.5-0.4l-0.3-0.2l-1-1.5l-0.4-1.8v-0.1l0,0l0.4-1.8l1-1.5l1.5-1l1.8-0.4l0,0l1.6,0.3l0.1,0l0.1,0l0.4,0.3l0.8,0.5
			l0.3,0.3l0.7,0.4l0.8,0.4l0.3,0.1l0.4-0.1l1.2-0.7l1.3-1.3l0.9-1.5l0.1-0.8l-0.1-0.3l-1.3-1l-3.7-0.9l-6.2,0.1l-6.6,0.7l-0.5,0
			l-1.8-0.4l-1.5-1l-1-1.5l-0.4-1.8l0.3-1.7l0.9-1.4l1.3-1l1.6-0.5l6.8-0.8l0.5,0l0,0l7-0.1h0.1l0,0L-1603.9-839.9z"/>
	</g>
	<g transform="matrix(1, 0, 0, 1, 311.875, 122.75)">
		<path d="M-1643.6-838.8l1.7,1.9l0.1,0.1l0.5,2.1l-0.4,1.8l-1,1.5l-1.5,1l-1.8,0.4l-2.4-0.7l-1.7-1.9l-0.1-0.1l-0.5-2.1l0.4-1.8
			l1-1.5l1.5-1l1.8-0.4L-1643.6-838.8z"/>
	</g>
</g>
</svg>
