<?xml version="1.0" encoding="utf-8"?>
<!-- Generator: Adobe Illustrator 23.1.0, SVG Export Plug-In . SVG Version: 6.00 Build 0)  -->
<svg version="1.1" id="Layer_1" xmlns="http://www.w3.org/2000/svg" xmlns:xlink="http://www.w3.org/1999/xlink" x="0px" y="0px"
	 viewBox="0 0 690 273" style="enable-background:new 0 0 690 273;" xml:space="preserve">
<g transform="matrix(1, 0, 0, 1, 1582.5009, 578.4328)">
	<path d="M-1458.5-484.2l4.3,0.7l0.4,0.1l0.4,0.1l4.3,1.5l0,0l0,0l0.2,0.1l1,0.5l0.1,0.1l0.1,0.1l2.9,2.5l1.2,1.5l0,0.1l0,0l1.5,3.3
		l0,0.1l0,0l0.4,1.8l0,0.3l-0.2,3.7l-0.2,0.9l-0.1,0.6l-1.6,3.6l-0.1,0.2l-0.4,0.8l-2.2,3l-0.3,0.3l-0.3,0.4l-2.5,2.1l-1,0.6
		l-0.2,0.2l-2.4,1.1l-0.4,0.1l-1.1,0.3l-1.8,0.2l-0.4,0l0,0l-1.8-0.3l0,0l0,0l0,0l-1.3-0.5l-0.2-0.1l-0.3-0.1l-1.3-1.2l-0.3-0.2
		l0-0.1l0,0l-0.7-1.1l-0.1-0.3l-0.3-0.4l-0.4-1.8v-1.4l0,0l0.3-1.5l0.6-1.8l0.4-0.8l0.1-0.2l1.3-2l0,0l0,0l1.6-2.4l0.1-0.1l0.1-0.2
		l1.9-2.2l0,0l0-0.1l1.6-1.8l-0.6-0.2l-3.8-0.6l-1.5-0.5l-1.2-1l-0.8-1.4l-0.3-1.6l0.4-1.8l1-1.5l1.5-1l1.8-0.4L-1458.5-484.2z"/>
</g>
<g transform="matrix(1, 0, 0, 1, 1576.0124, 553.954)">
	<path d="M-1190.1-490.6L-1190.1-490.6l0.1,0l0.4,0.3l0.9,0.5l0.1,0.1l0.1,0.1l0.3,0.5l0.5,0.7l0,0.2l0.1,0.1l0.1,0.6l0.2,0.8
		l0.1,0.7l0,0.5v1.2l0,0.2l-0.1,2.1l0,0l0,0.2l-0.1,0.9l-0.1,1.9l0,0l-0.2,5.9l0,0l0,0.1l-0.5,7.3l0,0l0,0.1l-0.8,8.3l0,0l0,0
		l-1.1,8.9l0,0l0,0.1l-1.3,8.7l-1.1,8.2l-0.7,7.7l-0.2,7.3l0.4,7l1,6.4l1.5,5.6l1.9,4.4l2.2,3.2l2,2l1.6,0.8l1.1,0.1l0.9-0.2
		l1.6-1.2l2.4-3.1l2.9-4.8l3.1-5.9l2.9-6.2l2.6-6l2.1-5.4l1.7-4.7l1.2-4l0.8-3.3l0,0l0,0l0.7-2.4l0.3-1.7l0.1-0.8v-0.9l0.4-1.8
		l1-1.5l1.5-1l1.8-0.4l1.8,0.4l1.5,1l0.2,0.2l1,1.5l0.4,1.8v0.4l-0.1,0.9l-0.1,0.3v5.2l0.2,5.2l0,0v0l0.2,6.2l0.4,6.4l0.6,6l0.8,5.4
		l0.9,4.2l1,3l0.8,1.3l0.9-0.4l2.5-1.9l3.3-3.4l3.5-4.7l3.4-5.5l3-5.5l2.3-5.2l1.7-4.6l1.2-3.9l0.8-3.1l0-0.1l0-0.1l0.7-2.1l0.4-1.4
		l0,0l0.2-0.7l0-0.3l0,0l0.1-0.5l0.1-0.3l0.1-0.2l0-0.1l0.2-0.3l0,0l0-0.1l0-0.1l0.2-0.5l0.3-0.3l0.2-0.2l0.2-0.2l0.3-0.3l0.6-0.3
		l0.3-0.2l0.2,0l0.2-0.1l1.5-0.2l0,0l1.8,0.4l1.5,1l1,1.5l0.4,1.8v0.1l-0.1,0.8l0,0.1v0.3l0.1,2.1v0l0.2,3.8v0l0.2,5.3l0,0.1l0,0
		l0.2,6.2l0.4,6.5l0.5,6.3l0.8,5.5l1,4.1l1.2,2.6l0.5,0.6l1.4-1.2l2.3-3.8l2.6-5.8l2.3-6.6l1.7-6.7l1.3-5.6l0.7-4.4l0.4-3l0.1-1.9
		v-0.2l-0.2-0.3l-0.4-1.8v-0.2l0.4-1.8l0.1-0.2l0-0.1l0.3-0.4l0.5-0.8l0.3-0.2l0.2-0.2l0.3-0.2l0.6-0.3l0.2-0.2l0.4-0.2l0.8-0.5
		l0.1,0l0,0l1.4-1l0.2-0.1l0.1-0.1l1.7-1.1l0.2-0.1l0.2-0.1l1.8-0.9l0,0l0,0l1.6-0.8l1.3-0.7l0.3-0.1l0.2-0.2l1-0.4l0.6-0.1l0.9-0.3
		l0.8-0.1l0.4,0l0.5,0l0.8,0.1l0.6,0.2l0.6,0.1l0.2,0.1l0.2,0.1l0.5,0.4l0.5,0.3l0.8,0.7l0.2,0.2l0.2,0.2l1.1,1.2l0.1,0.1l0.1,0.1
		l1.5,1.9l2,2.2l2.4,2.5l2.7,2.6l2.7,2.5l0,0.1l0.1,0l2.5,2.5l0.2,0.2l0.2,0.1l1.9,2.4l0.1,0.2l0.1,0.1l1.6,2.3l0.2,0.4l0.1,0.1
		l1.3,2.4l0.1,0.2l0.2,0.4l1,2.7l0,0.2l0.1,0.2l0.8,3.1l0,0l0,0l0.9,3.2l1.2,3.5l1.5,3.6l1.6,3.1l1.7,2.3l1.9,1.4l2,0.6l2.9-0.4
		l4.3-2l3.6-2.8l-3.5-4.4l-0.4-0.8l-0.2-0.2l-2.1-4.7l-0.1-0.4l-0.3-0.7l-1.1-5.4l-0.1-0.7l0-0.1l-0.2-6.1l0-0.2l0-0.5l0.8-7.1
		l0-0.1l0-0.3l1.7-7.6l0.1-0.2l0-0.2l2.7-7.8l0.2-0.3l0-0.2l3.5-7.2l0.2-0.2l0.1-0.3l4-6.1l0.2-0.2l0.3-0.4l4.2-4.4l0.8-0.5l0.3-0.3
		l4.2-2.4l0.1,0l0.1-0.1l1.6-0.5l3.8-0.4l0.5,0l1.6,0.3l3.2,1.2l0.2,0.1l0.1,0l0.2,0.2l0.7,0.4l0.4,0.4l0.2,0.2l2.5,2.7l0.7,1.1
		l0.1,0.1l1.7,3.8l0.1,0.3l0.2,0.4l1.3,4.8l0.1,0.5l0.1,0.2l0.5,5.4l0,0.5l0,0l0,0.2l-0.3,5.9l0,0.1l-0.1,0.6l-1.3,6l-0.1,0.3l0,0.3
		l-2.2,6.3l-0.1,0.3l0,0.2l-3.2,6.6l-0.1,0.1l0,0.1l-3.9,6.9l-0.1,0.1l-0.1,0.2l-4.6,6.9l-0.1,0.1l-0.1,0.2l-4.9,6.2l3.8,2.1
		l7.7,3.1l8.7,2.2l9,0.8l8.6-1.3l8.4-4.1l7.2-5.2l1.3-0.6l1.4-0.2l1.8,0.4l1.5,1l1,1.5l0.4,1.8l-0.5,2.1l-1.4,1.6l-7.5,5.4l-0.5,0.3
		l-0.2,0.1l-9.4,4.6l-0.3,0.1l-1.1,0.4l-9.8,1.5l-0.7,0.1l-0.4,0l-9.9-0.9l-0.2-0.1l-0.5-0.1l-9.4-2.4l-0.3-0.1l-0.3,0l-8.3-3.3
		l-0.2-0.2l-0.3-0.1l-6.1-3.5l-0.1,0.1l-5.7,4.4l-0.7,0.4l-0.2,0.2l-5.4,2.5l-0.4,0.1l-0.9,0.3l-4.5,0.7l-0.7,0.1l0,0l-1.3-0.2
		l-3.7-1.1l-0.1,0l-0.1,0l-0.9-0.5l-0.3-0.1l0,0l0,0l-3.2-2.2l-0.4-0.5l-0.6-0.5l-2.4-3.1l-0.2-0.5l-0.2-0.2l-1.9-3.6l-0.1-0.3
		l-0.1-0.2l-1.6-3.9l0-0.1l-0.1-0.1l-1.3-3.7l0-0.2l-0.1-0.2l-0.9-3.4l0,0l0,0l-0.8-3l-0.8-2.3l-1-1.9l-1.4-1.9l-1.7-2.1l-2.2-2.2
		l-2.6-2.5l0,0l0,0l-2.8-2.7l-0.1-0.1l-0.1-0.1l-2.5-2.6l0,0l0,0l-2.2-2.3l-0.1-0.2l-0.1-0.1l-1.4-1.7l-0.3,0.2l-0.1,0l-0.1,0.1
		l-1.7,0.8l0,0l0,0l-1.7,0.8l-1.5,0.9l-1,0.7v0.5l0,0.3l-0.2,2.2l0,0l0,0.2l-0.4,3.3l0,0.1l0,0.1l-0.8,4.6l0,0.1l0,0.1l-1.3,5.9l0,0
		l0,0.1l-1.8,7l-0.1,0.2l0,0.2l-2.4,7l-0.1,0.2l0,0.2l-2.9,6.3l-0.2,0.2l-0.1,0.3l-2.9,4.6l-0.4,0.3l-0.5,0.7l-2.8,2.5l-0.2,0.1
		l-0.2,0.2l-0.5,0.3l-0.4,0.2l-0.2,0l-0.2,0.1l-2.4,0.7l-1.3,0.2l0,0l-1.7-0.3l-2.2-0.9l-0.1-0.1l-0.2,0l-1.6-1.2l-1.9-2.3l-0.5-0.9
		l-0.2-0.2l-1.6-3.5l-0.1-0.3l-0.2-0.5l-1.1-4.7l0-0.3l-0.1-0.2l-0.8-5.8l0-0.2l0-0.1l-0.5-6.4l0-0.1l0,0l0-0.7l-3.1,5.7l-0.1,0.1
		l0,0.1l-3.6,5.8l-0.1,0.1l-0.1,0.2l-3.9,5.1l-0.2,0.2l-0.2,0.3l-3.8,3.8l-0.3,0.2l-0.2,0.2l-3.2,2.5l-1,0.5l-0.1,0.1l-2.7,1.1
		l-1.7,0.3l0,0l-0.2,0l-2.2-0.1l-0.4-0.1l-1-0.2l-0.2-0.1l-0.2,0l-0.3-0.2l-0.6-0.3l-1.8-1.4l-0.6-0.8l-0.4-0.4l-1.6-2.6l-0.1-0.2
		l-0.4-0.8l-1.2-3.7l0-0.3l-0.1-0.2l-1-4.6l0-0.2l0-0.1l-0.8-5.6l0-0.2l0-0.1l-0.4-3.7l-2.2,5l0,0l0,0.1l-3,6.3l0,0l0,0.1l-3.2,6.1
		l-0.1,0.1l0,0.1l-3.1,5.2l-0.2,0.1l-0.2,0.3l-3,3.8l-0.5,0.4l-0.4,0.4l-2.8,2.1l-0.1,0.1l-0.1,0.1l-0.5,0.2l-0.6,0.3l-0.2,0
		l-0.2,0.1l-2.7,0.7l-1.2,0.2l0,0l-0.6,0l-2.8-0.4l-1.3-0.4l-0.2,0l-0.1,0h0v0l-2.9-1.5l-0.3-0.3l-0.8-0.5l-2.8-2.8l-0.3-0.4
		l-0.3-0.2l-2.7-4l-0.3-0.7l-0.1-0.1l-2.1-5.1l-0.1-0.3l-0.2-0.4l-1.6-6.1l0-0.3l-0.1-0.2l-1.1-6.8l0-0.4l0-0.1l0-0.5l-1,3.3l0,0.1
		l0,0.1l-3,8.4l-0.1,0.2l0,0.1l-3.4,7.5l-0.1,0.2l-0.1,0.2l-3.3,5.8l-0.2,0.2l-0.4,0.6l-3.5,3.8l-1,0.7l-0.3,0.3l-3.2,1.7l-0.2,0
		l-0.2,0.1l-1.8,0.4l-0.1,0l-2.8-0.1l-0.3-0.1l-1-0.2l-0.3-0.1l-0.2,0l-0.3-0.2l-0.5-0.3l-2.4-1.7l-0.9-1l-0.4-0.4l-1.8-3.1
		l-0.1-0.2l-0.3-0.5l-1.7-4.4l0-0.2l-0.1-0.2l-1.6-5.7l0-0.2l0-0.1l-1.5-6.6l0-0.1l0-0.1l-0.2-1l-1.3,2.7l-0.2,0.2l-0.1,0.2
		l-2.9,4.9l-0.1,0.1l-0.2,0.3l-3,3.9l-0.3,0.3l-0.3,0.4l-3.1,2.7l-0.8,0.5l-0.2,0.2l-3,1.5l-0.3,0.1l-1.1,0.4l-2.7,0.4l-0.7,0
		l-1.4-0.2l-2.4-0.8l-0.1-0.1l-0.1,0l-0.3-0.2l-0.7-0.3l-0.2-0.2l-0.2-0.1l-1.9-1.7l-1.1-1.5l0-0.1l0-0.1l-1.1-2.7l-0.1-0.6
		l-0.2-0.6l-0.4-3.2l0-0.6l0-0.4l0.3-3.8l0-0.1l0-0.4l0.9-4.3l0.1-0.3l0.1-0.3l1.6-4.6l0.1-0.2l0-0.1l2.2-5l0.2-0.2l0.1-0.2l0.6-1.1
		l-0.1,0.1l-5.5,6l-5.6,6.6l-5.6,6.7l-0.1,0.1l-0.1,0.1l-5.2,5.7l-0.1,0.1l-0.1,0.1l-4.3,4.3l-0.3,0.2l-0.2,0.2l-3.2,2.5l-0.1,0.1
		l-0.1,0.1l-0.5,0.2l-0.6,0.3l-0.1,0l-0.1,0.1l-2.1,0.6l-1.3,0.2l-1.8-0.4l-0.2-0.2l-0.2-0.1l-1.4-0.8l-0.1-0.1l-0.1,0l-0.5-0.6
		l-1-0.9l-0.1-0.2l-0.1-0.2l-0.8-1.7l-0.1-0.4l-0.3-0.7l-0.5-2.6l0-0.2l0-0.1l-0.5-3.1l0,0l0,0l-0.5-3.7l0-0.1l0,0l-0.5-4.3v0
		l-0.6-4.2l-0.8-3.7l-1-3.1l-1-2l0,0l-0.6,0.3l-2.1,1.6l-2.7,2.7l-3.2,4.2l-3.8,5.7l-4.2,7l-4.3,7.9l0,0l-4.3,7.8l0,0l-3.8,7l0,0
		l0,0l-2.9,5.2l0,0l0,0l-1.8,3l-0.3,0.3l-0.4,0.6l-0.9,0.9l-1.5,1l-1.8,0.4l-1.8-0.4l-1.5-1l-1-1.5l-0.4-1.8v-0.4l0.1-0.7l0.1-0.8
		l0.1-1.5l0,0l0-0.2l0.2-2.6l0.2-3.8l0.2-5l0.2-5.9v-6.5l-0.4-6.4l-0.8-6l-1.2-5.3l-0.9-3.4l-1.4,2l-2.5,3.7l-3.1,4.8l0,0l-3.9,5.9
		l-4.2,6.9l-1.2,2.2l0.4,6.4l0,0.2l0,0l0.2,9.9l0,0.1l0,0l0,0.1l-0.2,9.9l0,0l0,0.2l-0.7,9.6l0,0l0,0.2l-1.1,9l0,0.1l0,0.2l-1.5,8.3
		l0,0.1l0,0.2l-1.9,7.3l0,0.1l0,0.1l-2,6.3l-0.1,0.2l0,0.2l-2.2,5.2l-0.1,0.1l0,0.2l-2.1,4l-0.1,0.1l0,0.1l-1.6,2.8l-0.1,0.1
		l-0.1,0.3l-1.3,1.8l-0.3,0.3l-0.3,0.4l-0.8,0.8l-0.9,0.5l-0.4,0.3l-0.1,0l0,0l-1.7,0.3l-1.1-0.1l-0.6-0.2l-0.1-0.1l-0.1,0l-0.7-0.3
		l-0.4-0.2l-0.1-0.1l-0.1,0l-0.7-0.7l-0.3-0.3l0,0l0,0l-0.6-1.2l-0.1-0.1l0,0l-0.4-1.3l-0.1-0.6l-0.1-0.5l-0.3-3.1l0-0.2l0,0
		l-0.2-4.9l0-0.2l0,0l-0.1-6.6v-0.1l0-0.1l0.2-7.7l0,0l0-0.2l0.6-8.6l0-0.1l0-0.2l1.3-9.3l0-0.1l0-0.2l2.2-9.5l0-0.1l0-0.1l2.7-9.4
		l0.1-0.1l0-0.1l3.2-9l0.1-0.2l0-0.1l3.8-8.6l0.1-0.1l0-0.2l1.8-3.3l0-0.5l-0.8-8.7l-0.2-1.5l-0.5,1.1l-0.1,0.1l0,0.1l-2.3,4.3
		l-0.1,0.1l0,0.1l-2.6,4.2l-0.1,0.1l-0.1,0.2l-2.9,3.8l-0.1,0.1l-0.1,0.2l-2.7,3l-0.3,0.2l-0.2,0.3l-2.5,2.1l-0.9,0.5l-0.2,0.1
		l-2.4,1.1l0,0l0,0l-1.8,0.4l-0.3,0l-2.4-0.2l-1.7-0.4l0,0l0,0l-2.3-1.1l-0.2-0.2l-1.1-0.7l-2.1-2.2l-0.5-0.7l-0.3-0.3l-1.7-3.1
		l-0.1-0.3l-0.3-0.6l-1.2-4l-0.1-0.5l-0.1-0.3l-0.3-1.9l-1.9,1.4l-0.2,0.1l-0.1,0.1l-5.4,3.4l-0.2,0.1l-0.2,0.1l-4.5,2.3l-0.3,0.1
		l-0.5,0.2l-3.6,1.1l-0.6,0.1l-0.4,0.1l-2.4,0.2l-0.4,0l0,0l-1.3-0.2l-1.6-0.5l-0.2-0.1l-0.2,0l-0.3-0.2l-0.6-0.3l-0.3-0.3l-0.2-0.1
		l-1.2-1.1l-0.8-1.1l-0.2-0.2l-0.8-1.7l-0.1-0.3l-0.3-0.8l-0.5-2.4l0-0.4l0-0.2l-0.3-3.1l0-0.2l0,0l-0.2-3.8l0-0.1l0,0l-0.2-4.5
		l0-0.2v-4.9l-0.1-5l-0.2-4.4l-0.2-1.4l-1,1.1l0,0l0,0l-2.6,2.8l-0.1,0.1l-0.1,0.1l-3.2,3.2l0,0l0,0l-3.9,3.7l-0.1,0.1l-0.1,0.1
		l-4.7,4.1l-3.9,3.5l2.7,3.3l0.3,0.6l0.2,0.2l2.1,4l0.1,0.3l0.3,0.7l1.1,4.2l0.1,0.8l0.1,0.2l0.2,4.2l0,0.3l0,0.6l-0.5,4.5l-0.1,0.3
		l-0.1,0.5l-1.4,4.5l-0.3,0.5l-0.1,0.2l-2.4,4.5l-0.2,0.2l-0.2,0.4l-3.3,4.3l-0.2,0.2l-0.2,0.3l-4.1,3.9l-0.3,0.2l-0.2,0.2l-4.8,3.5
		l-0.3,0.2l-0.1,0.1l-5.4,3.1l-0.3,0.1l-0.2,0.2l-5.4,2.3l-0.1,0l-0.2,0.1l-5,1.8l-0.2,0l-0.2,0.1l-4.4,1.1l-0.4,0.1l-0.2,0.1
		l-3.6,0.4l-0.5,0l-0.1,0l-2.9-0.1l-0.2-0.1l-1-0.2l-2.3-0.7l-1-0.5l-0.1,0l-1.8-1.2l-1.5-1.6l0,0l0,0l-0.9-1.7l0-0.1l-0.1-0.1
		l-0.4-1.7l-0.2-2.4l0-0.3l0,0l0.2-1.3l1.1-3.6l0.3-0.5l0.1-0.3l2.5-4.7l0.1-0.1l0.2-0.3l3.9-5.7l0.1-0.1l0.1-0.1l4.8-6.2l0.1-0.1
		l0.1-0.2l5.6-6.2l0.1-0.1l0.1-0.1l6-6.1l0,0l0,0l6.1-5.8l0,0l0,0l5.2-5l-1.3-1l-4.6-3.1l0,0l-4.6-3.2l-0.1-0.1l-0.2-0.1l-4.1-3.2
		l-0.2-0.2l-0.2-0.2l-3.2-3.2l-0.3-0.5l-0.3-0.3l-2.1-3.3l0-0.1l-0.5-1.1l-1.1-3.5l-0.2-1.4v-3.8l0.1-1.1l1.1-4.3l0.3-0.6l0.1-0.3
		l2.4-4.8l0.1-0.1l0.2-0.4l3.5-5.2l0.1-0.1l0.1-0.2l4.3-5.4l0.2-0.2l0.2-0.3l5.2-5l0.3-0.2l0.2-0.2l5.9-4.5l0.4-0.2l0.2-0.1l6.2-3.4
		l0.3-0.1l0.2-0.1l6.1-2.6l0.3-0.1l0.3-0.2l5.7-1.6l0.3,0l0.2-0.1l4.8-0.8l0.8-0.1h3.5l1,0.1l2.2,0.5l0.6,0.2l0.3,0.1l1.2,0.6
		l0.1,0.1l0.3,0.1l1.5,1l1,1.5l0.4,1.8l-0.4,1.8l-1,1.5l-0.1,0.1l-1.5,1l-1.8,0.4l-1.8-0.4l-0.3-0.2l-0.2-0.1l-0.4-0.2l-0.5-0.2
		l-1.2-0.2h-2.6l-4.2,0.7l-5.2,1.5l-5.7,2.4l-5.7,3.1l-5.4,4.1l-4.8,4.6l-4,5l-3.2,4.8l-2,4.1l-0.8,3.3v2.6l0.7,2.3l1.5,2.4l2.7,2.7
		l3.7,3l4.5,3.1l0,0l4.8,3.2l0.1,0.1l0.2,0.1l2.7,2.1l4.4-4l0,0l0,0l4.7-4.1l3.8-3.6l3.1-3l2.5-2.7l2-2.2l1.5-1.7l1.1-1.4l0.2-0.2
		l0.2-0.3l0.7-0.7l0.3-0.4l0.4-0.4l0.5-0.4l0.3-0.4l0.3-0.2l0,0l0,0l0.6-0.3l0.6-0.3l0,0l0,0l0.2-0.1l1.5-0.2h0.2l1.8,0.4l1.5,1
		l0.5,0.8l0.2,0.2l0,0.1l0.2,0.3l0.1,0.6l0.1,0.2l0.3,0.8l0.1,0.3l0.2,0.3l0.5,1.9l0.1,0.4l0.1,0.2l0.4,3l0,0l0.5,4l0,0.4l0,0.1
		l0.2,4.7l0,0.2l0,0l0.1,5.1l0,0.1v4.8l0.1,4.4l0.2,3.7l0.3,2.8l0.4,1.6l0,0.1l0.7-0.1l2.8-0.9l4-2.1l5.2-3.2l5.7-4.1l1.8-1.4
		l0.4-2.1l0.1-0.2l0-0.3l1.5-4.8l0.2-0.4l0.1-0.2l2.2-4.4l0.1-0.1l0.2-0.4l2.8-4l0.2-0.2l0.2-0.3l3.2-3.4l0.3-0.2l0.2-0.3l3.5-2.7
		l0.3-0.1l0.1-0.1l3.3-2.1l0.4-0.1l0.3-0.2l3-1.3l0.3-0.1l0.4-0.2l2.4-0.6l0.3,0l0.2-0.1l1.4-0.2l0.8-0.1h0.5l0,0l1.5,0.2l0.5,0.2
		l0.2,0.1l0.1,0l0.3,0.2l0.7,0.3l0.3,0.3l0.2,0.2l0.2,0.2l0.3,0.3l0.3,0.6l0.2,0.3l0,0.2l0.1,0.2l0.2,1.5v0.3l-0.2,1.5l-0.1,0.2
		l0,0.1l-0.2,0.3l-0.4,0.7l-0.5,0.6l0,0l0,0l-0.7,1l-1.1,1.4l0,0l0,0.1l-1.6,2.1l0,0l-2.2,2.8l0,0l0,0l-2.8,3.5l-0.1,0l-0.1,0.1
		l-3.5,4.1l-0.1,0.1l-0.1,0.1l-4.5,4.5l-0.1,0.1l-0.1,0.1l-5.2,4.7l-0.1,0.1l-0.1,0.1l-1.1,0.9l-0.1,3.2l0.5,3.7l1,3.2l1.2,2.1
		l1.1,1.1l0.7,0.3l0.4,0l0.9-0.4l1.8-1.4l2.3-2.6l2.6-3.4l2.4-3.9l2.2-4.1l1.9-3.9l1.5-3.5l1-2.8l0.7-2.1l0,0l0,0l0.5-1.4l0.2-0.7
		l-0.1-0.4l0.4-1.8l1-1.5l1.5-1l1.8-0.4l1.3,0.3l0.6,0.1l0,0l0.1,0l0.2,0.1l0.2,0.2l0.1,0l0.1,0.2l0.7,0.5l0.4,0.6l0.3,0.2l0.1,0.3
		l0.3,0.4l0.1,0.7l0.1,0.2l0.5,1.7l0,0.3l0.1,0.2l0.8,3.5l0,0.2l0,0.1l0.8,5.6l0,0.1l0,0l0.6,4.5l3-4.7l0,0l3.1-4.8l0,0l0-0.1
		l2.6-3.8l0,0l0,0l2.1-2.9l0.1-0.1l0.1-0.1l1.5-1.8l0.1-0.1l0.1-0.1l1.2-1.2l0.5-0.4l0.3-0.3l0.9-0.6l0.8-0.4l0.3-0.2l0.1,0l0,0h0
		l0.6-0.2l1.5-0.2l1.4,0.2l0.2,0.1l0.2,0l0.3,0.2l0.6,0.3l0.8,0.5l0.6,0.7l0.6,0.5l1.1,1.6l0.3,0.7l0.1,0.1l1.2,3l0.1,0.3l0.1,0.3
		l1.2,4.5l0,0.2l0,0.1l1.2,5.6l0,0.3l0,0.1l0.8,6.4l0,0.3l0,0.1l0.4,6.7l0,0.3v6.7l0,0.1l0,1.5l3.9-7.1l0,0l4.4-8l0.1-0.1l0-0.1
		l4.3-7.2l0,0l0-0.1l3.9-5.9l0.1-0.1l0.1-0.2l3.5-4.6l0.2-0.2l0.2-0.3l3.2-3.1l0.3-0.2l0.2-0.2l2.7-2.1l0.6-0.3l0.2-0.2l2.1-1.1
		l0.3-0.1l1.2-0.4l1.7-0.2l0.6,0l1.8,0.4l0,0l0,0l1.6,0.7l0,0l0.1,0l1.5,1.2l1.5,1.7l0.4,0.7l0.2,0.2l1.5,2.7l0.1,0.2l0.2,0.5
		l1.2,3.7l0,0.3l0.1,0.2l0.9,4.1l0,0.3l0,0.1l0.6,4.4l0,0.1l0,0l0.5,4.3l0.5,3.6l0,0l0,0l0.4,2.9l0.6-0.4l4-4l5.1-5.5l5.6-6.6l0,0
		l0,0l5.7-6.7l0.1-0.1l0.1-0.1l5.6-6.1l0.1,0l0-0.1l5.2-5.3l0.2-0.1l0.1-0.1l4.7-4.1l0.1-0.1l0.1-0.1l4.2-3.2l0.2-0.1l0.1-0.1
		l3.6-2.4l0.3-0.1l0.2-0.2l3.2-1.6l0.2,0l0.3-0.2l2.8-1.1l0.3-0.1l0.3-0.1l2.2-0.5l0.1,0l0,0l1.7-0.4l0.1,0l0.1,0l1.2-0.2l0.4,0
		l0.1,0l0.8-0.1l0.4,0h0.5l1.5,0.2l0.3,0.1l0.1,0.1l0.3,0.1l0.6,0.4l0.3,0.2l0.1,0.1l0.3,0.2l0.1,0.1l0.3,0.5l0.1,0.1l0.1,0.1
		l0.5,0.8l0.4,1.8l-0.4,1.8l-0.4,0.5l0,0l-0.1,0l-0.6,0.9l-0.9,0.6l0.1,0.1l0.5,0.8l0.2,0.2l0,0.1l0.2,0.3l0.1,0.6l0.2,0.5l0.1,0.4
		l0,0l0,0l0.1,0.9l0.1,0.8v1.8l0,0.4l-0.2,2.3l0.1,3.6l0.4,6.1l0.7,6.8l1.3,7l1.4,6.4l1.5,5.4l1.5,3.9l1.1,2l0.4,0.3l0.2,0l1.5-0.8
		l2.6-2.8l2.9-5.1l3.2-7.1l2.9-8.1l2.7-8.8l2.6-8.8l2.3-8.7l0,0l2-8.2l1.7-7.9l1.4-7.2l1.1-6.4l0.8-5.8l0.5-5.1l0,0l0,0l0.5-4
		l0.1-1.8l0.1-1.8v-3l0.4-1.8l1-1.5l1.5-1l1.8-0.4L-1190.1-490.6z M-1384-366.3l-2.6,9.1l-2.1,9.1l-1.3,8.9l-0.6,8.4l-0.2,7.5l0,1.7
		l0.7-1.7l1.9-6l1.8-7l1.4-8l1-8.8l0.7-9.4l0.1-6.4L-1384-366.3z M-1482.4-393.7l-6,5.8l-5.9,6l-5.4,6l-4.6,5.9l-3.7,5.4l-2.1,4.1
		l-0.7,2.4l0,0.5l0.1,0.1l1,0.3l2,0.1l3-0.3l3.9-1l4.7-1.6l5-2.1l4.9-2.8l4.4-3.2l3.6-3.5l2.9-3.7l2-3.7l1.1-3.6l0.4-3.6l-0.2-3.3
		l-0.9-3.3l-1.7-3.1l-2.2-2.7L-1482.4-393.7z M-1244.3-428.8l-3.5,3.4l-3.6,4.1l-3.3,4.6l-2.7,4.7l-2,4.5l-1.4,4.1l-0.7,3.7l-0.2,3
		l0.3,2.2l0.5,1.2l0.3,0.3l0.4,0.1l0.9-0.1l1.8-0.9l2.3-2l2.6-3.3l2.7-4.4l2.4-5.2l1.9-5.4l1.4-5.1l0.9-4.3l0.4-3.2l0-0.5l0-0.1
		v-2.6L-1244.3-428.8z M-1008.4-459.3l-2.8,1.6l-3.5,3.6l-3.6,5.5l-3.2,6.6l-2.5,7.3l-1.6,7.1l-0.7,6.5l0.2,5.4l0.9,4.5l1.7,3.7
		l2.6,3.2l0.1-0.1l4.9-6.2l4.3-6.5l3.7-6.7l3-6.2l2-5.7l1.2-5.3l0.3-5.1l-0.5-4.7l-1.1-4.1l-1.2-2.8l-1.2-1.3l-1.1-0.4
		L-1008.4-459.3z"/>
	<g transform="matrix(1, 0, 0, 1, 235.25, 20.25)">
		<path d="M-1367-490.3l1.5,1l1,1.5l0.4,1.8l-0.3,1.7l-0.9,1.4l-1.3,1l-1.6,0.5l-13.4,1.7l0,0l-16.2,2.1l0,0l0,0l-16.5,2.1l-0.1,0
			l0,0l-16.5,1.9l0,0l0,0l-15.8,1.8l-0.1,0l0,0l-13.7,1.5l0,0l0,0l-10.7,1.1h0l-6.6,0.7l-0.1,0l0,0l-2.9,0.2l-0.4,0h-0.3l-0.4,0.1
			l-1.8-0.4l-1.5-1l-0.1-0.1l-1-1.5l-0.4-1.8l0.4-1.8l1-1.5l1.5-1l1.8-0.4h0.6l2.7-0.2l6.5-0.7l0,0l0,0l10.7-1.1h0l13.7-1.5h0
			l15.8-1.8l0,0l0,0l16.5-1.9h0l16.5-2.1h0l16.2-2.1l0,0l0,0l13.4-1.7l0.6,0L-1367-490.3z"/>
	</g>
</g>
</svg>
